<svg xmlns="http://www.w3.org/2000/svg" xmlns:xlink="http://www.w3.org/1999/xlink" width="1920" zoomAndPan="magnify" viewBox="0 0 1440 419.999985" height="560" preserveAspectRatio="xMidYMid meet" version="1.0"><defs><clipPath id="f4d9e35311"><path d="M 1069 0 L 1440 0 L 1440 420 L 1069 420 Z M 1069 0 " clip-rule="nonzero"/></clipPath><clipPath id="df8377e558"><path d="M 1164.078125 505.65625 L 1042.914062 -70.492188 L 1432.640625 -152.449219 L 1553.804688 423.699219 Z M 1164.078125 505.65625 " clip-rule="nonzero"/></clipPath><clipPath id="69fe87930f"><path d="M 1164.078125 505.65625 L 1042.914062 -70.492188 L 1432.640625 -152.449219 L 1553.804688 423.699219 Z M 1164.078125 505.65625 " clip-rule="nonzero"/></clipPath><clipPath id="94b987cc4f"><path d="M 1139.230469 -78.503906 C 1092.550781 -64.617188 1062.941406 -17.414062 1070.40625 30.617188 C 1076.0625 67.765625 1101.503906 96.441406 1133.949219 108.304688 C 1150.058594 114.265625 1159.742188 130.679688 1157.839844 147.851562 C 1156.316406 161.109375 1156.867188 175.132812 1159.765625 188.898438 C 1168.257812 229.285156 1194.648438 261.355469 1229.171875 278.535156 C 1249.230469 288.453125 1261.664062 308.84375 1262.757812 331.136719 C 1263.128906 340.882812 1264.746094 350.847656 1267.511719 360.566406 C 1285.332031 423.671875 1348.59375 463.5625 1413.195312 452.851562 C 1486.609375 440.769531 1534.292969 370.117188 1519.140625 298.066406 C 1512.867188 268.234375 1496.796875 243.101562 1475.28125 225.101562 C 1453.488281 206.921875 1447.9375 175.980469 1462.183594 151.417969 C 1478.6875 122.789062 1484.503906 87.78125 1475.234375 52.828125 C 1458.136719 -11.386719 1393.847656 -52.738281 1328.378906 -41.605469 C 1320.757812 -40.242188 1313.695312 -38.519531 1306.542969 -36.054688 C 1282.667969 -27.679688 1256.484375 -33.675781 1238.96875 -52.035156 C 1214.613281 -77.824219 1176.648438 -89.726562 1139.230469 -78.503906 Z M 1139.230469 -78.503906 " clip-rule="nonzero"/></clipPath><linearGradient x1="11.458238" gradientTransform="matrix(-0.482562, -2.294662, 2.294662, -0.482562, 1164.042224, 505.48884)" y1="86.113998" x2="219.832317" gradientUnits="userSpaceOnUse" y2="86.113998" id="34f18f8ac4"><stop stop-opacity="1" stop-color="rgb(11.764526%, 69.610596%, 71.691895%)" offset="0"/><stop stop-opacity="1" stop-color="rgb(11.875916%, 69.415283%, 71.569824%)" offset="0.015625"/><stop stop-opacity="1" stop-color="rgb(12.098694%, 69.026184%, 71.325684%)" offset="0.03125"/><stop stop-opacity="1" stop-color="rgb(12.321472%, 68.637085%, 71.081543%)" offset="0.046875"/><stop stop-opacity="1" stop-color="rgb(12.54425%, 68.247986%, 70.837402%)" offset="0.0625"/><stop stop-opacity="1" stop-color="rgb(12.768555%, 67.858887%, 70.593262%)" offset="0.078125"/><stop stop-opacity="1" stop-color="rgb(12.991333%, 67.469788%, 70.350647%)" offset="0.09375"/><stop stop-opacity="1" stop-color="rgb(13.214111%, 67.080688%, 70.106506%)" offset="0.109375"/><stop stop-opacity="1" stop-color="rgb(13.43689%, 66.691589%, 69.862366%)" offset="0.125"/><stop stop-opacity="1" stop-color="rgb(13.659668%, 66.30249%, 69.618225%)" offset="0.140625"/><stop stop-opacity="1" stop-color="rgb(13.882446%, 65.913391%, 69.374084%)" offset="0.15625"/><stop stop-opacity="1" stop-color="rgb(14.10675%, 65.524292%, 69.13147%)" offset="0.171875"/><stop stop-opacity="1" stop-color="rgb(14.329529%, 65.135193%, 68.887329%)" offset="0.1875"/><stop stop-opacity="1" stop-color="rgb(14.552307%, 64.746094%, 68.643188%)" offset="0.203125"/><stop stop-opacity="1" stop-color="rgb(14.775085%, 64.356995%, 68.399048%)" offset="0.21875"/><stop stop-opacity="1" stop-color="rgb(14.997864%, 63.967896%, 68.154907%)" offset="0.234375"/><stop stop-opacity="1" stop-color="rgb(15.222168%, 63.578796%, 67.912292%)" offset="0.25"/><stop stop-opacity="1" stop-color="rgb(15.444946%, 63.189697%, 67.668152%)" offset="0.265625"/><stop stop-opacity="1" stop-color="rgb(15.667725%, 62.800598%, 67.424011%)" offset="0.28125"/><stop stop-opacity="1" stop-color="rgb(15.890503%, 62.411499%, 67.179871%)" offset="0.296875"/><stop stop-opacity="1" stop-color="rgb(16.113281%, 62.0224%, 66.93573%)" offset="0.3125"/><stop stop-opacity="1" stop-color="rgb(16.33606%, 61.633301%, 66.693115%)" offset="0.328125"/><stop stop-opacity="1" stop-color="rgb(16.560364%, 61.244202%, 66.448975%)" offset="0.34375"/><stop stop-opacity="1" stop-color="rgb(16.783142%, 60.855103%, 66.204834%)" offset="0.359375"/><stop stop-opacity="1" stop-color="rgb(17.00592%, 60.466003%, 65.960693%)" offset="0.375"/><stop stop-opacity="1" stop-color="rgb(17.228699%, 60.076904%, 65.716553%)" offset="0.390625"/><stop stop-opacity="1" stop-color="rgb(17.451477%, 59.687805%, 65.473938%)" offset="0.40625"/><stop stop-opacity="1" stop-color="rgb(17.674255%, 59.298706%, 65.229797%)" offset="0.421875"/><stop stop-opacity="1" stop-color="rgb(17.89856%, 58.909607%, 64.985657%)" offset="0.4375"/><stop stop-opacity="1" stop-color="rgb(18.121338%, 58.520508%, 64.741516%)" offset="0.453125"/><stop stop-opacity="1" stop-color="rgb(18.344116%, 58.131409%, 64.498901%)" offset="0.46875"/><stop stop-opacity="1" stop-color="rgb(18.566895%, 57.74231%, 64.254761%)" offset="0.484375"/><stop stop-opacity="1" stop-color="rgb(18.789673%, 57.35321%, 64.01062%)" offset="0.5"/><stop stop-opacity="1" stop-color="rgb(19.013977%, 56.964111%, 63.766479%)" offset="0.515625"/><stop stop-opacity="1" stop-color="rgb(19.236755%, 56.575012%, 63.522339%)" offset="0.53125"/><stop stop-opacity="1" stop-color="rgb(19.459534%, 56.185913%, 63.279724%)" offset="0.546875"/><stop stop-opacity="1" stop-color="rgb(19.682312%, 55.796814%, 63.035583%)" offset="0.5625"/><stop stop-opacity="1" stop-color="rgb(19.90509%, 55.407715%, 62.791443%)" offset="0.578125"/><stop stop-opacity="1" stop-color="rgb(20.127869%, 55.018616%, 62.547302%)" offset="0.59375"/><stop stop-opacity="1" stop-color="rgb(20.352173%, 54.629517%, 62.303162%)" offset="0.609375"/><stop stop-opacity="1" stop-color="rgb(20.574951%, 54.240417%, 62.060547%)" offset="0.625"/><stop stop-opacity="1" stop-color="rgb(20.797729%, 53.851318%, 61.816406%)" offset="0.640625"/><stop stop-opacity="1" stop-color="rgb(21.020508%, 53.462219%, 61.572266%)" offset="0.65625"/><stop stop-opacity="1" stop-color="rgb(21.243286%, 53.07312%, 61.328125%)" offset="0.671875"/><stop stop-opacity="1" stop-color="rgb(21.46759%, 52.684021%, 61.083984%)" offset="0.6875"/><stop stop-opacity="1" stop-color="rgb(21.690369%, 52.294922%, 60.84137%)" offset="0.703125"/><stop stop-opacity="1" stop-color="rgb(21.913147%, 51.905823%, 60.597229%)" offset="0.71875"/><stop stop-opacity="1" stop-color="rgb(22.135925%, 51.516724%, 60.353088%)" offset="0.734375"/><stop stop-opacity="1" stop-color="rgb(22.358704%, 51.127625%, 60.108948%)" offset="0.75"/><stop stop-opacity="1" stop-color="rgb(22.581482%, 50.738525%, 59.864807%)" offset="0.765625"/><stop stop-opacity="1" stop-color="rgb(22.805786%, 50.349426%, 59.622192%)" offset="0.78125"/><stop stop-opacity="1" stop-color="rgb(23.028564%, 49.960327%, 59.378052%)" offset="0.796875"/><stop stop-opacity="1" stop-color="rgb(23.251343%, 49.571228%, 59.133911%)" offset="0.8125"/><stop stop-opacity="1" stop-color="rgb(23.474121%, 49.182129%, 58.889771%)" offset="0.828125"/><stop stop-opacity="1" stop-color="rgb(23.696899%, 48.79303%, 58.64563%)" offset="0.84375"/><stop stop-opacity="1" stop-color="rgb(23.921204%, 48.403931%, 58.403015%)" offset="0.859375"/><stop stop-opacity="1" stop-color="rgb(24.143982%, 48.014832%, 58.158875%)" offset="0.875"/><stop stop-opacity="1" stop-color="rgb(24.36676%, 47.625732%, 57.914734%)" offset="0.890625"/><stop stop-opacity="1" stop-color="rgb(24.589539%, 47.236633%, 57.670593%)" offset="0.90625"/><stop stop-opacity="1" stop-color="rgb(24.812317%, 46.847534%, 57.427979%)" offset="0.921875"/><stop stop-opacity="1" stop-color="rgb(25.035095%, 46.458435%, 57.183838%)" offset="0.9375"/><stop stop-opacity="1" stop-color="rgb(25.259399%, 46.069336%, 56.939697%)" offset="0.953125"/><stop stop-opacity="1" stop-color="rgb(25.482178%, 45.680237%, 56.695557%)" offset="0.96875"/><stop stop-opacity="1" stop-color="rgb(25.704956%, 45.291138%, 56.451416%)" offset="0.984375"/><stop stop-opacity="1" stop-color="rgb(25.927734%, 44.902039%, 56.208801%)" offset="1"/></linearGradient><clipPath id="f9b244257d"><path d="M 1194 308 L 1251 308 L 1251 365 L 1194 365 Z M 1194 308 " clip-rule="nonzero"/></clipPath><clipPath id="8a4976a130"><path d="M 1164.078125 505.65625 L 1042.914062 -70.492188 L 1432.640625 -152.449219 L 1553.804688 423.699219 Z M 1164.078125 505.65625 " clip-rule="nonzero"/></clipPath><clipPath id="24ed432005"><path d="M 1164.078125 505.65625 L 1042.914062 -70.492188 L 1432.640625 -152.449219 L 1553.804688 423.699219 Z M 1164.078125 505.65625 " clip-rule="nonzero"/></clipPath><clipPath id="5668ff20c9"><path d="M 1216.96875 309.375 C 1217.863281 309.1875 1218.765625 309.042969 1219.671875 308.945312 C 1220.582031 308.84375 1221.492188 308.789062 1222.40625 308.78125 C 1223.320312 308.769531 1224.230469 308.804688 1225.140625 308.886719 C 1226.054688 308.964844 1226.957031 309.089844 1227.855469 309.257812 C 1228.753906 309.425781 1229.640625 309.636719 1230.519531 309.894531 C 1231.394531 310.148438 1232.257812 310.449219 1233.105469 310.789062 C 1233.957031 311.128906 1234.785156 311.507812 1235.59375 311.929688 C 1236.40625 312.351562 1237.195312 312.8125 1237.960938 313.3125 C 1238.722656 313.8125 1239.464844 314.347656 1240.175781 314.921875 C 1240.890625 315.492188 1241.570312 316.097656 1242.226562 316.738281 C 1242.878906 317.375 1243.5 318.046875 1244.085938 318.746094 C 1244.671875 319.445312 1245.226562 320.171875 1245.742188 320.925781 C 1246.257812 321.683594 1246.734375 322.460938 1247.175781 323.261719 C 1247.613281 324.0625 1248.015625 324.882812 1248.371094 325.722656 C 1248.730469 326.5625 1249.046875 327.417969 1249.324219 328.292969 C 1249.597656 329.164062 1249.828125 330.046875 1250.019531 330.941406 C 1250.207031 331.835938 1250.347656 332.734375 1250.449219 333.644531 C 1250.546875 334.554688 1250.601562 335.464844 1250.613281 336.378906 C 1250.625 337.292969 1250.589844 338.203125 1250.507812 339.113281 C 1250.429688 340.023438 1250.304688 340.929688 1250.136719 341.828125 C 1249.96875 342.726562 1249.757812 343.613281 1249.5 344.492188 C 1249.246094 345.367188 1248.945312 346.230469 1248.605469 347.078125 C 1248.265625 347.925781 1247.882812 348.757812 1247.460938 349.566406 C 1247.039062 350.378906 1246.578125 351.164062 1246.082031 351.929688 C 1245.582031 352.695312 1245.046875 353.433594 1244.472656 354.148438 C 1243.902344 354.859375 1243.296875 355.542969 1242.65625 356.195312 C 1242.015625 356.851562 1241.347656 357.46875 1240.648438 358.058594 C 1239.949219 358.644531 1239.21875 359.195312 1238.464844 359.714844 C 1237.710938 360.230469 1236.933594 360.707031 1236.132812 361.144531 C 1235.332031 361.585938 1234.511719 361.984375 1233.671875 362.34375 C 1232.828125 362.703125 1231.972656 363.019531 1231.101562 363.292969 C 1230.230469 363.570312 1229.347656 363.800781 1228.453125 363.988281 C 1227.558594 364.175781 1226.65625 364.320312 1225.75 364.421875 C 1224.839844 364.519531 1223.929688 364.574219 1223.015625 364.585938 C 1222.101562 364.59375 1221.191406 364.558594 1220.28125 364.480469 C 1219.371094 364.402344 1218.464844 364.277344 1217.566406 364.109375 C 1216.667969 363.941406 1215.78125 363.726562 1214.902344 363.472656 C 1214.027344 363.214844 1213.164062 362.917969 1212.316406 362.578125 C 1211.46875 362.238281 1210.636719 361.855469 1209.828125 361.433594 C 1209.015625 361.011719 1208.226562 360.550781 1207.464844 360.050781 C 1206.699219 359.550781 1205.957031 359.015625 1205.246094 358.445312 C 1204.535156 357.871094 1203.851562 357.265625 1203.195312 356.628906 C 1202.542969 355.988281 1201.921875 355.320312 1201.335938 354.621094 C 1200.75 353.917969 1200.195312 353.191406 1199.679688 352.4375 C 1199.164062 351.683594 1198.6875 350.90625 1198.246094 350.105469 C 1197.808594 349.304688 1197.410156 348.484375 1197.050781 347.640625 C 1196.691406 346.800781 1196.375 345.945312 1196.097656 345.074219 C 1195.824219 344.203125 1195.59375 343.320312 1195.40625 342.425781 C 1195.214844 341.53125 1195.074219 340.628906 1194.972656 339.722656 C 1194.875 338.8125 1194.820312 337.902344 1194.808594 336.988281 C 1194.800781 336.074219 1194.832031 335.160156 1194.914062 334.25 C 1194.992188 333.339844 1195.117188 332.4375 1195.285156 331.539062 C 1195.453125 330.640625 1195.667969 329.753906 1195.921875 328.875 C 1196.175781 327.996094 1196.476562 327.136719 1196.816406 326.285156 C 1197.15625 325.4375 1197.539062 324.609375 1197.960938 323.796875 C 1198.382812 322.988281 1198.84375 322.199219 1199.34375 321.433594 C 1199.839844 320.667969 1200.378906 319.929688 1200.949219 319.21875 C 1201.519531 318.503906 1202.125 317.820312 1202.765625 317.167969 C 1203.40625 316.515625 1204.074219 315.894531 1204.773438 315.308594 C 1205.472656 314.71875 1206.203125 314.167969 1206.957031 313.652344 C 1207.710938 313.136719 1208.488281 312.660156 1209.289062 312.21875 C 1210.089844 311.78125 1210.910156 311.378906 1211.75 311.019531 C 1212.59375 310.664062 1213.449219 310.34375 1214.320312 310.070312 C 1215.191406 309.796875 1216.074219 309.5625 1216.96875 309.375 Z M 1216.96875 309.375 " clip-rule="nonzero"/></clipPath><linearGradient x1="51.201536" gradientTransform="matrix(-0.482562, -2.294662, 2.294662, -0.482562, 1164.042224, 505.48884)" y1="86.113998" x2="79.398448" gradientUnits="userSpaceOnUse" y2="86.113998" id="27390a45ab"><stop stop-opacity="1" stop-color="rgb(14.486694%, 64.860535%, 68.714905%)" offset="0"/><stop stop-opacity="1" stop-color="rgb(14.546204%, 64.755249%, 68.647766%)" offset="0.0625"/><stop stop-opacity="1" stop-color="rgb(14.666748%, 64.544678%, 68.516541%)" offset="0.125"/><stop stop-opacity="1" stop-color="rgb(14.788818%, 64.334106%, 68.383789%)" offset="0.1875"/><stop stop-opacity="1" stop-color="rgb(14.909363%, 64.123535%, 68.252563%)" offset="0.25"/><stop stop-opacity="1" stop-color="rgb(15.029907%, 63.912964%, 68.121338%)" offset="0.3125"/><stop stop-opacity="1" stop-color="rgb(15.150452%, 63.702393%, 67.988586%)" offset="0.375"/><stop stop-opacity="1" stop-color="rgb(15.270996%, 63.491821%, 67.857361%)" offset="0.4375"/><stop stop-opacity="1" stop-color="rgb(15.391541%, 63.28125%, 67.724609%)" offset="0.5"/><stop stop-opacity="1" stop-color="rgb(15.512085%, 63.070679%, 67.593384%)" offset="0.5625"/><stop stop-opacity="1" stop-color="rgb(15.632629%, 62.860107%, 67.460632%)" offset="0.625"/><stop stop-opacity="1" stop-color="rgb(15.7547%, 62.649536%, 67.329407%)" offset="0.6875"/><stop stop-opacity="1" stop-color="rgb(15.875244%, 62.438965%, 67.196655%)" offset="0.75"/><stop stop-opacity="1" stop-color="rgb(15.995789%, 62.228394%, 67.06543%)" offset="0.8125"/><stop stop-opacity="1" stop-color="rgb(16.116333%, 62.017822%, 66.932678%)" offset="0.875"/><stop stop-opacity="1" stop-color="rgb(16.236877%, 61.807251%, 66.801453%)" offset="0.9375"/><stop stop-opacity="1" stop-color="rgb(16.357422%, 61.59668%, 66.668701%)" offset="1"/></linearGradient><clipPath id="4f511a0822"><path d="M 1100 186 L 1135 186 L 1135 220 L 1100 220 Z M 1100 186 " clip-rule="nonzero"/></clipPath><clipPath id="c3f13e3f66"><path d="M 1164.078125 505.65625 L 1042.914062 -70.492188 L 1432.640625 -152.449219 L 1553.804688 423.699219 Z M 1164.078125 505.65625 " clip-rule="nonzero"/></clipPath><clipPath id="401022fe4a"><path d="M 1164.078125 505.65625 L 1042.914062 -70.492188 L 1432.640625 -152.449219 L 1553.804688 423.699219 Z M 1164.078125 505.65625 " clip-rule="nonzero"/></clipPath><clipPath id="99fa04614b"><path d="M 1114.078125 187.003906 C 1114.613281 186.894531 1115.148438 186.808594 1115.691406 186.75 C 1116.234375 186.6875 1116.777344 186.65625 1117.324219 186.648438 C 1117.867188 186.644531 1118.414062 186.664062 1118.957031 186.710938 C 1119.5 186.761719 1120.039062 186.835938 1120.574219 186.933594 C 1121.109375 187.035156 1121.640625 187.160156 1122.164062 187.3125 C 1122.6875 187.464844 1123.203125 187.644531 1123.707031 187.847656 C 1124.214844 188.050781 1124.707031 188.277344 1125.191406 188.53125 C 1125.675781 188.78125 1126.144531 189.058594 1126.601562 189.355469 C 1127.058594 189.652344 1127.5 189.972656 1127.925781 190.3125 C 1128.351562 190.65625 1128.757812 191.015625 1129.148438 191.398438 C 1129.539062 191.777344 1129.90625 192.179688 1130.257812 192.597656 C 1130.609375 193.015625 1130.9375 193.449219 1131.246094 193.898438 C 1131.554688 194.347656 1131.839844 194.8125 1132.101562 195.289062 C 1132.363281 195.769531 1132.601562 196.257812 1132.816406 196.757812 C 1133.03125 197.261719 1133.21875 197.769531 1133.382812 198.289062 C 1133.546875 198.8125 1133.683594 199.335938 1133.796875 199.871094 C 1133.910156 200.40625 1133.996094 200.941406 1134.054688 201.484375 C 1134.113281 202.027344 1134.144531 202.570312 1134.152344 203.117188 C 1134.15625 203.660156 1134.136719 204.207031 1134.089844 204.75 C 1134.042969 205.292969 1133.96875 205.832031 1133.867188 206.367188 C 1133.765625 206.902344 1133.640625 207.433594 1133.488281 207.957031 C 1133.335938 208.480469 1133.15625 208.996094 1132.953125 209.5 C 1132.75 210.007812 1132.523438 210.5 1132.273438 210.984375 C 1132.019531 211.46875 1131.746094 211.9375 1131.449219 212.394531 C 1131.148438 212.851562 1130.832031 213.292969 1130.488281 213.71875 C 1130.148438 214.144531 1129.785156 214.550781 1129.40625 214.941406 C 1129.023438 215.332031 1128.625 215.699219 1128.207031 216.050781 C 1127.789062 216.402344 1127.355469 216.730469 1126.90625 217.039062 C 1126.453125 217.347656 1125.992188 217.632812 1125.511719 217.894531 C 1125.035156 218.15625 1124.546875 218.394531 1124.042969 218.609375 C 1123.542969 218.824219 1123.03125 219.011719 1122.511719 219.175781 C 1121.992188 219.339844 1121.464844 219.476562 1120.929688 219.589844 C 1120.398438 219.703125 1119.859375 219.789062 1119.316406 219.847656 C 1118.777344 219.90625 1118.230469 219.9375 1117.6875 219.945312 C 1117.140625 219.949219 1116.597656 219.929688 1116.054688 219.882812 C 1115.511719 219.835938 1114.972656 219.761719 1114.433594 219.660156 C 1113.898438 219.558594 1113.371094 219.433594 1112.847656 219.28125 C 1112.324219 219.128906 1111.808594 218.949219 1111.300781 218.746094 C 1110.796875 218.542969 1110.300781 218.316406 1109.816406 218.066406 C 1109.332031 217.8125 1108.863281 217.539062 1108.40625 217.242188 C 1107.949219 216.941406 1107.507812 216.621094 1107.085938 216.28125 C 1106.660156 215.941406 1106.25 215.578125 1105.863281 215.199219 C 1105.472656 214.816406 1105.101562 214.417969 1104.75 214 C 1104.402344 213.582031 1104.070312 213.148438 1103.765625 212.699219 C 1103.457031 212.246094 1103.171875 211.785156 1102.910156 211.304688 C 1102.644531 210.828125 1102.410156 210.339844 1102.195312 209.835938 C 1101.980469 209.335938 1101.789062 208.824219 1101.625 208.304688 C 1101.464844 207.785156 1101.324219 207.257812 1101.210938 206.722656 C 1101.101562 206.191406 1101.015625 205.652344 1100.957031 205.109375 C 1100.894531 204.570312 1100.863281 204.023438 1100.855469 203.480469 C 1100.851562 202.933594 1100.871094 202.390625 1100.917969 201.847656 C 1100.96875 201.304688 1101.042969 200.765625 1101.140625 200.226562 C 1101.242188 199.691406 1101.367188 199.164062 1101.519531 198.640625 C 1101.675781 198.117188 1101.851562 197.601562 1102.054688 197.09375 C 1102.257812 196.589844 1102.484375 196.09375 1102.738281 195.609375 C 1102.988281 195.125 1103.265625 194.65625 1103.5625 194.199219 C 1103.859375 193.742188 1104.179688 193.300781 1104.519531 192.878906 C 1104.863281 192.453125 1105.222656 192.042969 1105.605469 191.65625 C 1105.984375 191.265625 1106.386719 190.894531 1106.804688 190.542969 C 1107.222656 190.195312 1107.65625 189.863281 1108.105469 189.558594 C 1108.554688 189.25 1109.019531 188.964844 1109.496094 188.703125 C 1109.976562 188.4375 1110.464844 188.199219 1110.964844 187.988281 C 1111.46875 187.773438 1111.976562 187.582031 1112.5 187.417969 C 1113.019531 187.253906 1113.546875 187.117188 1114.078125 187.003906 Z M 1114.078125 187.003906 " clip-rule="nonzero"/></clipPath><linearGradient x1="121.788307" gradientTransform="matrix(-0.482562, -2.294662, 2.294662, -0.482562, 1164.042224, 505.48884)" y1="86.113998" x2="138.611682" gradientUnits="userSpaceOnUse" y2="86.113998" id="acc2d066b7"><stop stop-opacity="1" stop-color="rgb(19.322205%, 56.425476%, 63.42926%)" offset="0"/><stop stop-opacity="1" stop-color="rgb(19.393921%, 56.298828%, 63.349915%)" offset="0.125"/><stop stop-opacity="1" stop-color="rgb(19.538879%, 56.047058%, 63.191223%)" offset="0.25"/><stop stop-opacity="1" stop-color="rgb(19.682312%, 55.796814%, 63.034058%)" offset="0.375"/><stop stop-opacity="1" stop-color="rgb(19.827271%, 55.545044%, 62.876892%)" offset="0.5"/><stop stop-opacity="1" stop-color="rgb(19.970703%, 55.293274%, 62.719727%)" offset="0.625"/><stop stop-opacity="1" stop-color="rgb(20.114136%, 55.04303%, 62.562561%)" offset="0.75"/><stop stop-opacity="1" stop-color="rgb(20.259094%, 54.79126%, 62.40387%)" offset="0.875"/><stop stop-opacity="1" stop-color="rgb(20.402527%, 54.53949%, 62.246704%)" offset="1"/></linearGradient><clipPath id="78d166fee6"><path d="M 0 272 L 285 272 L 285 420 L 0 420 Z M 0 272 " clip-rule="nonzero"/></clipPath><clipPath id="41c7120c97"><path d="M -189.964844 754.683594 L -78.625 229.351562 L 366 323.585938 L 254.660156 848.917969 Z M -189.964844 754.683594 " clip-rule="nonzero"/></clipPath><clipPath id="a341eba4d1"><path d="M -189.964844 754.683594 L -78.625 229.351562 L 366 323.585938 L 254.660156 848.917969 Z M -189.964844 754.683594 " clip-rule="nonzero"/></clipPath><clipPath id="f50f3d3648"><path d="M -38.851562 387.265625 C -44.398438 409.921875 -44.46875 432.5 -40.042969 453.796875 C -36.390625 471.699219 -46.410156 489.6875 -63.816406 495.679688 C -98.496094 508.191406 -126.367188 537.785156 -134.574219 576.515625 C -139.914062 601.699219 -136.058594 626.847656 -125.441406 648.214844 C -108.164062 682.660156 -73.410156 704.921875 -34.859375 708.128906 L 2.734375 711.128906 C 7.351562 711.613281 10.734375 715.558594 10.253906 720.171875 C 5.820312 762.183594 33.472656 801.558594 75.761719 810.523438 C 111.878906 818.175781 147.800781 800.964844 165.152344 770.628906 C 166.808594 767.503906 170.214844 765.496094 173.691406 765.488281 C 225.152344 763.980469 270.585938 727.679688 281.714844 675.171875 C 290.171875 635.257812 276.667969 595.898438 249.246094 569.480469 C 230.070312 551.015625 225.257812 522.191406 238.574219 499.191406 C 246.347656 485.945312 251.996094 471.003906 255.371094 455.085938 C 272.492188 374.304688 221.527344 294.980469 141.46875 276.769531 C 61.515625 258.085938 -19.269531 307.75 -38.851562 387.265625 Z M -38.851562 387.265625 " clip-rule="nonzero"/></clipPath><linearGradient x1="150.831245" gradientTransform="matrix(0.503572, -2.375948, 2.375948, 0.503572, -189.867647, 754.223723)" y1="95.099998" x2="240.820415" gradientUnits="userSpaceOnUse" y2="95.099998" id="37dc6644d7"><stop stop-opacity="1" stop-color="rgb(22.497559%, 50.886536%, 59.957886%)" offset="0"/><stop stop-opacity="1" stop-color="rgb(22.60437%, 50.698853%, 59.840393%)" offset="0.03125"/><stop stop-opacity="1" stop-color="rgb(22.819519%, 50.323486%, 59.605408%)" offset="0.0625"/><stop stop-opacity="1" stop-color="rgb(23.034668%, 49.949646%, 59.370422%)" offset="0.09375"/><stop stop-opacity="1" stop-color="rgb(23.249817%, 49.57428%, 59.135437%)" offset="0.125"/><stop stop-opacity="1" stop-color="rgb(23.46344%, 49.200439%, 58.901978%)" offset="0.15625"/><stop stop-opacity="1" stop-color="rgb(23.678589%, 48.825073%, 58.666992%)" offset="0.1875"/><stop stop-opacity="1" stop-color="rgb(23.893738%, 48.451233%, 58.432007%)" offset="0.21875"/><stop stop-opacity="1" stop-color="rgb(24.108887%, 48.075867%, 58.197021%)" offset="0.25"/><stop stop-opacity="1" stop-color="rgb(24.32251%, 47.702026%, 57.962036%)" offset="0.28125"/><stop stop-opacity="1" stop-color="rgb(24.537659%, 47.32666%, 57.727051%)" offset="0.3125"/><stop stop-opacity="1" stop-color="rgb(24.752808%, 46.95282%, 57.492065%)" offset="0.34375"/><stop stop-opacity="1" stop-color="rgb(24.967957%, 46.577454%, 57.258606%)" offset="0.375"/><stop stop-opacity="1" stop-color="rgb(25.18158%, 46.203613%, 57.023621%)" offset="0.40625"/><stop stop-opacity="1" stop-color="rgb(25.396729%, 45.828247%, 56.788635%)" offset="0.4375"/><stop stop-opacity="1" stop-color="rgb(25.611877%, 45.454407%, 56.55365%)" offset="0.46875"/><stop stop-opacity="1" stop-color="rgb(25.827026%, 45.079041%, 56.318665%)" offset="0.5"/><stop stop-opacity="1" stop-color="rgb(26.040649%, 44.7052%, 56.083679%)" offset="0.53125"/><stop stop-opacity="1" stop-color="rgb(26.255798%, 44.329834%, 55.848694%)" offset="0.5625"/><stop stop-opacity="1" stop-color="rgb(26.470947%, 43.955994%, 55.615234%)" offset="0.59375"/><stop stop-opacity="1" stop-color="rgb(26.686096%, 43.580627%, 55.380249%)" offset="0.625"/><stop stop-opacity="1" stop-color="rgb(26.899719%, 43.205261%, 55.145264%)" offset="0.65625"/><stop stop-opacity="1" stop-color="rgb(27.114868%, 42.831421%, 54.910278%)" offset="0.6875"/><stop stop-opacity="1" stop-color="rgb(27.330017%, 42.456055%, 54.675293%)" offset="0.71875"/><stop stop-opacity="1" stop-color="rgb(27.545166%, 42.082214%, 54.440308%)" offset="0.75"/><stop stop-opacity="1" stop-color="rgb(27.745056%, 41.731262%, 54.220581%)" offset="1"/></linearGradient><clipPath id="5d13cac3ef"><path d="M 0 0 L 256 0 L 256 151 L 0 151 Z M 0 0 " clip-rule="nonzero"/></clipPath><clipPath id="c3c92a8bfa"><path d="M -1.648438 -85.796875 L 272.886719 -9.269531 L 221.128906 176.402344 L -53.40625 99.875 Z M -1.648438 -85.796875 " clip-rule="nonzero"/></clipPath><clipPath id="87eaa7c1f0"><path d="M -1.648438 -85.796875 L 272.886719 -9.269531 L 221.128906 176.402344 L -53.40625 99.875 Z M -1.648438 -85.796875 " clip-rule="nonzero"/></clipPath><clipPath id="0e9f219b95"><path d="M 255.101562 34.019531 C 259.554688 10.84375 245.875 -12.433594 223.550781 -19.953125 C 206.316406 -25.820312 188.300781 -21.285156 175.949219 -9.984375 C 169.789062 -4.390625 160.566406 -3.890625 153.609375 -8.546875 C 148.246094 -12.164062 142.09375 -15.058594 135.527344 -16.890625 C 116.261719 -22.257812 96.578125 -18.074219 81.476562 -7.066406 C 72.730469 -0.65625 61.1875 0.132812 51.355469 -4.375 C 47.082031 -6.394531 42.4375 -7.921875 37.636719 -8.90625 C 6.519531 -15.339844 -24.765625 2.949219 -34.589844 33.121094 C -45.796875 67.390625 -26.066406 103.679688 8.300781 113.257812 C 22.53125 117.226562 36.925781 115.929688 49.472656 110.699219 C 62.160156 105.390625 76.703125 109.914062 84.085938 121.527344 C 92.707031 135.019531 106.464844 145.339844 123.5625 149.164062 C 154.996094 156.15625 187.140625 137.75 196.980469 107.113281 C 198.09375 103.53125 198.929688 100.105469 199.46875 96.480469 C 201.203125 84.34375 209.628906 74.425781 221.4375 70.992188 C 237.96875 66.28125 251.566406 52.617188 255.101562 34.019531 Z M 255.101562 34.019531 " clip-rule="nonzero"/></clipPath><linearGradient x1="21.597431" gradientTransform="matrix(1.094531, 0.305114, -0.305114, 1.094531, -1.565296, -85.774417)" y1="86.113998" x2="278.540842" gradientUnits="userSpaceOnUse" y2="86.113998" id="921dd3fa35"><stop stop-opacity="1" stop-color="rgb(26.359558%, 44.14978%, 55.737305%)" offset="0"/><stop stop-opacity="1" stop-color="rgb(26.290894%, 44.270325%, 55.812073%)" offset="0.0078125"/><stop stop-opacity="1" stop-color="rgb(26.153564%, 44.509888%, 55.961609%)" offset="0.015625"/><stop stop-opacity="1" stop-color="rgb(26.016235%, 44.749451%, 56.112671%)" offset="0.0234375"/><stop stop-opacity="1" stop-color="rgb(25.878906%, 44.989014%, 56.262207%)" offset="0.03125"/><stop stop-opacity="1" stop-color="rgb(25.740051%, 45.228577%, 56.413269%)" offset="0.0390625"/><stop stop-opacity="1" stop-color="rgb(25.602722%, 45.469666%, 56.562805%)" offset="0.046875"/><stop stop-opacity="1" stop-color="rgb(25.465393%, 45.709229%, 56.713867%)" offset="0.0546875"/><stop stop-opacity="1" stop-color="rgb(25.328064%, 45.948792%, 56.863403%)" offset="0.0625"/><stop stop-opacity="1" stop-color="rgb(25.190735%, 46.188354%, 57.014465%)" offset="0.0703125"/><stop stop-opacity="1" stop-color="rgb(25.053406%, 46.427917%, 57.164001%)" offset="0.078125"/><stop stop-opacity="1" stop-color="rgb(24.916077%, 46.669006%, 57.315063%)" offset="0.0859375"/><stop stop-opacity="1" stop-color="rgb(24.778748%, 46.908569%, 57.4646%)" offset="0.09375"/><stop stop-opacity="1" stop-color="rgb(24.639893%, 47.148132%, 57.615662%)" offset="0.101563"/><stop stop-opacity="1" stop-color="rgb(24.502563%, 47.387695%, 57.765198%)" offset="0.109375"/><stop stop-opacity="1" stop-color="rgb(24.365234%, 47.627258%, 57.91626%)" offset="0.117187"/><stop stop-opacity="1" stop-color="rgb(24.227905%, 47.868347%, 58.065796%)" offset="0.125"/><stop stop-opacity="1" stop-color="rgb(24.090576%, 48.10791%, 58.216858%)" offset="0.132812"/><stop stop-opacity="1" stop-color="rgb(23.953247%, 48.347473%, 58.366394%)" offset="0.140625"/><stop stop-opacity="1" stop-color="rgb(23.815918%, 48.587036%, 58.517456%)" offset="0.148437"/><stop stop-opacity="1" stop-color="rgb(23.678589%, 48.828125%, 58.666992%)" offset="0.15625"/><stop stop-opacity="1" stop-color="rgb(23.539734%, 49.067688%, 58.818054%)" offset="0.164062"/><stop stop-opacity="1" stop-color="rgb(23.402405%, 49.307251%, 58.96759%)" offset="0.171875"/><stop stop-opacity="1" stop-color="rgb(23.265076%, 49.546814%, 59.118652%)" offset="0.179688"/><stop stop-opacity="1" stop-color="rgb(23.127747%, 49.786377%, 59.269714%)" offset="0.1875"/><stop stop-opacity="1" stop-color="rgb(22.990417%, 50.027466%, 59.41925%)" offset="0.195313"/><stop stop-opacity="1" stop-color="rgb(22.853088%, 50.267029%, 59.570312%)" offset="0.203125"/><stop stop-opacity="1" stop-color="rgb(22.715759%, 50.506592%, 59.719849%)" offset="0.210938"/><stop stop-opacity="1" stop-color="rgb(22.576904%, 50.746155%, 59.870911%)" offset="0.21875"/><stop stop-opacity="1" stop-color="rgb(22.439575%, 50.985718%, 60.020447%)" offset="0.226562"/><stop stop-opacity="1" stop-color="rgb(22.302246%, 51.226807%, 60.171509%)" offset="0.234375"/><stop stop-opacity="1" stop-color="rgb(22.164917%, 51.46637%, 60.321045%)" offset="0.242188"/><stop stop-opacity="1" stop-color="rgb(22.027588%, 51.705933%, 60.472107%)" offset="0.25"/><stop stop-opacity="1" stop-color="rgb(21.890259%, 51.945496%, 60.621643%)" offset="0.257812"/><stop stop-opacity="1" stop-color="rgb(21.75293%, 52.186584%, 60.772705%)" offset="0.265625"/><stop stop-opacity="1" stop-color="rgb(21.615601%, 52.426147%, 60.922241%)" offset="0.273438"/><stop stop-opacity="1" stop-color="rgb(21.476746%, 52.66571%, 61.073303%)" offset="0.28125"/><stop stop-opacity="1" stop-color="rgb(21.339417%, 52.905273%, 61.222839%)" offset="0.289062"/><stop stop-opacity="1" stop-color="rgb(21.202087%, 53.144836%, 61.373901%)" offset="0.296875"/><stop stop-opacity="1" stop-color="rgb(21.064758%, 53.385925%, 61.523438%)" offset="0.304687"/><stop stop-opacity="1" stop-color="rgb(20.927429%, 53.625488%, 61.6745%)" offset="0.3125"/><stop stop-opacity="1" stop-color="rgb(20.7901%, 53.865051%, 61.824036%)" offset="0.320312"/><stop stop-opacity="1" stop-color="rgb(20.652771%, 54.104614%, 61.975098%)" offset="0.328125"/><stop stop-opacity="1" stop-color="rgb(20.515442%, 54.344177%, 62.124634%)" offset="0.335938"/><stop stop-opacity="1" stop-color="rgb(20.376587%, 54.585266%, 62.275696%)" offset="0.34375"/><stop stop-opacity="1" stop-color="rgb(20.239258%, 54.824829%, 62.425232%)" offset="0.351562"/><stop stop-opacity="1" stop-color="rgb(20.101929%, 55.064392%, 62.576294%)" offset="0.359375"/><stop stop-opacity="1" stop-color="rgb(19.9646%, 55.303955%, 62.72583%)" offset="0.367188"/><stop stop-opacity="1" stop-color="rgb(19.827271%, 55.545044%, 62.876892%)" offset="0.375"/><stop stop-opacity="1" stop-color="rgb(19.689941%, 55.784607%, 63.026428%)" offset="0.382812"/><stop stop-opacity="1" stop-color="rgb(19.552612%, 56.02417%, 63.17749%)" offset="0.390625"/><stop stop-opacity="1" stop-color="rgb(19.415283%, 56.263733%, 63.328552%)" offset="0.398438"/><stop stop-opacity="1" stop-color="rgb(19.276428%, 56.503296%, 63.478088%)" offset="0.40625"/><stop stop-opacity="1" stop-color="rgb(19.139099%, 56.744385%, 63.62915%)" offset="0.414062"/><stop stop-opacity="1" stop-color="rgb(19.00177%, 56.983948%, 63.778687%)" offset="0.421875"/><stop stop-opacity="1" stop-color="rgb(18.864441%, 57.223511%, 63.929749%)" offset="0.429688"/><stop stop-opacity="1" stop-color="rgb(18.727112%, 57.463074%, 64.079285%)" offset="0.4375"/><stop stop-opacity="1" stop-color="rgb(18.589783%, 57.702637%, 64.230347%)" offset="0.445312"/><stop stop-opacity="1" stop-color="rgb(18.452454%, 57.943726%, 64.379883%)" offset="0.453125"/><stop stop-opacity="1" stop-color="rgb(18.315125%, 58.183289%, 64.530945%)" offset="0.460937"/><stop stop-opacity="1" stop-color="rgb(18.17627%, 58.422852%, 64.680481%)" offset="0.46875"/><stop stop-opacity="1" stop-color="rgb(18.03894%, 58.662415%, 64.831543%)" offset="0.476562"/><stop stop-opacity="1" stop-color="rgb(17.901611%, 58.903503%, 64.981079%)" offset="0.484375"/><stop stop-opacity="1" stop-color="rgb(17.764282%, 59.143066%, 65.132141%)" offset="0.492188"/><stop stop-opacity="1" stop-color="rgb(17.626953%, 59.382629%, 65.281677%)" offset="0.5"/><stop stop-opacity="1" stop-color="rgb(17.489624%, 59.622192%, 65.432739%)" offset="0.507812"/><stop stop-opacity="1" stop-color="rgb(17.352295%, 59.861755%, 65.582275%)" offset="0.515625"/><stop stop-opacity="1" stop-color="rgb(17.214966%, 60.102844%, 65.733337%)" offset="0.523438"/><stop stop-opacity="1" stop-color="rgb(17.076111%, 60.342407%, 65.882874%)" offset="0.53125"/><stop stop-opacity="1" stop-color="rgb(16.938782%, 60.58197%, 66.033936%)" offset="0.539062"/><stop stop-opacity="1" stop-color="rgb(16.801453%, 60.821533%, 66.183472%)" offset="0.546875"/><stop stop-opacity="1" stop-color="rgb(16.664124%, 61.061096%, 66.334534%)" offset="0.554688"/><stop stop-opacity="1" stop-color="rgb(16.526794%, 61.302185%, 66.48407%)" offset="0.5625"/><stop stop-opacity="1" stop-color="rgb(16.389465%, 61.541748%, 66.635132%)" offset="0.570312"/><stop stop-opacity="1" stop-color="rgb(16.252136%, 61.781311%, 66.784668%)" offset="0.578125"/><stop stop-opacity="1" stop-color="rgb(16.114807%, 62.020874%, 66.93573%)" offset="0.585937"/><stop stop-opacity="1" stop-color="rgb(15.975952%, 62.261963%, 67.086792%)" offset="0.59375"/><stop stop-opacity="1" stop-color="rgb(15.838623%, 62.501526%, 67.236328%)" offset="0.601562"/><stop stop-opacity="1" stop-color="rgb(15.701294%, 62.741089%, 67.38739%)" offset="0.609375"/><stop stop-opacity="1" stop-color="rgb(15.563965%, 62.980652%, 67.536926%)" offset="0.617187"/><stop stop-opacity="1" stop-color="rgb(15.426636%, 63.220215%, 67.687988%)" offset="0.625"/><stop stop-opacity="1" stop-color="rgb(15.289307%, 63.461304%, 67.837524%)" offset="0.632812"/><stop stop-opacity="1" stop-color="rgb(15.151978%, 63.700867%, 67.988586%)" offset="0.640625"/><stop stop-opacity="1" stop-color="rgb(15.014648%, 63.94043%, 68.138123%)" offset="0.648438"/><stop stop-opacity="1" stop-color="rgb(14.875793%, 64.179993%, 68.289185%)" offset="0.65625"/><stop stop-opacity="1" stop-color="rgb(14.738464%, 64.419556%, 68.438721%)" offset="0.664062"/><stop stop-opacity="1" stop-color="rgb(14.601135%, 64.660645%, 68.589783%)" offset="0.671875"/><stop stop-opacity="1" stop-color="rgb(14.463806%, 64.900208%, 68.739319%)" offset="0.679688"/><stop stop-opacity="1" stop-color="rgb(14.326477%, 65.139771%, 68.890381%)" offset="0.6875"/><stop stop-opacity="1" stop-color="rgb(14.189148%, 65.379333%, 69.039917%)" offset="0.695312"/><stop stop-opacity="1" stop-color="rgb(14.051819%, 65.620422%, 69.190979%)" offset="0.703125"/><stop stop-opacity="1" stop-color="rgb(13.91449%, 65.859985%, 69.340515%)" offset="0.710938"/><stop stop-opacity="1" stop-color="rgb(13.775635%, 66.099548%, 69.491577%)" offset="0.71875"/><stop stop-opacity="1" stop-color="rgb(13.638306%, 66.339111%, 69.641113%)" offset="0.726563"/><stop stop-opacity="1" stop-color="rgb(13.500977%, 66.578674%, 69.792175%)" offset="0.734375"/><stop stop-opacity="1" stop-color="rgb(13.363647%, 66.819763%, 69.941711%)" offset="0.742188"/><stop stop-opacity="1" stop-color="rgb(13.226318%, 67.059326%, 70.092773%)" offset="0.75"/><stop stop-opacity="1" stop-color="rgb(13.088989%, 67.298889%, 70.24231%)" offset="0.757812"/><stop stop-opacity="1" stop-color="rgb(12.95166%, 67.538452%, 70.393372%)" offset="0.765625"/><stop stop-opacity="1" stop-color="rgb(12.814331%, 67.778015%, 70.542908%)" offset="0.773437"/><stop stop-opacity="1" stop-color="rgb(12.675476%, 68.019104%, 70.69397%)" offset="0.78125"/><stop stop-opacity="1" stop-color="rgb(12.538147%, 68.258667%, 70.843506%)" offset="0.789062"/><stop stop-opacity="1" stop-color="rgb(12.400818%, 68.49823%, 70.994568%)" offset="0.796875"/><stop stop-opacity="1" stop-color="rgb(12.263489%, 68.737793%, 71.14563%)" offset="0.804688"/><stop stop-opacity="1" stop-color="rgb(12.12616%, 68.978882%, 71.295166%)" offset="0.8125"/><stop stop-opacity="1" stop-color="rgb(11.988831%, 69.218445%, 71.446228%)" offset="0.820312"/><stop stop-opacity="1" stop-color="rgb(11.851501%, 69.458008%, 71.595764%)" offset="0.828125"/><stop stop-opacity="1" stop-color="rgb(11.712646%, 69.697571%, 71.746826%)" offset="0.835938"/><stop stop-opacity="1" stop-color="rgb(11.575317%, 69.937134%, 71.896362%)" offset="0.84375"/><stop stop-opacity="1" stop-color="rgb(11.437988%, 70.178223%, 72.047424%)" offset="0.851562"/><stop stop-opacity="1" stop-color="rgb(11.300659%, 70.417786%, 72.19696%)" offset="0.859375"/><stop stop-opacity="1" stop-color="rgb(11.16333%, 70.657349%, 72.348022%)" offset="0.867188"/><stop stop-opacity="1" stop-color="rgb(11.036682%, 70.878601%, 72.485352%)" offset="0.875"/><stop stop-opacity="1" stop-color="rgb(10.978699%, 70.979309%, 72.549438%)" offset="1"/></linearGradient><clipPath id="166411eb19"><path d="M 216 87 L 243 87 L 243 114 L 216 114 Z M 216 87 " clip-rule="nonzero"/></clipPath><clipPath id="e778d8c026"><path d="M -1.648438 -85.796875 L 272.886719 -9.269531 L 221.128906 176.402344 L -53.40625 99.875 Z M -1.648438 -85.796875 " clip-rule="nonzero"/></clipPath><clipPath id="6937765534"><path d="M -1.648438 -85.796875 L 272.886719 -9.269531 L 221.128906 176.402344 L -53.40625 99.875 Z M -1.648438 -85.796875 " clip-rule="nonzero"/></clipPath><clipPath id="db148830ca"><path d="M 241.644531 103.875 C 241.417969 104.679688 241.117188 105.453125 240.742188 106.199219 C 240.363281 106.945312 239.917969 107.648438 239.402344 108.304688 C 238.886719 108.964844 238.3125 109.5625 237.679688 110.109375 C 237.046875 110.652344 236.363281 111.132812 235.636719 111.542969 C 234.910156 111.953125 234.148438 112.289062 233.355469 112.546875 C 232.558594 112.808594 231.75 112.988281 230.917969 113.089844 C 230.089844 113.191406 229.257812 113.210938 228.425781 113.148438 C 227.589844 113.082031 226.773438 112.941406 225.96875 112.714844 C 225.164062 112.492188 224.386719 112.191406 223.640625 111.8125 C 222.894531 111.4375 222.195312 110.992188 221.535156 110.476562 C 220.878906 109.960938 220.277344 109.386719 219.734375 108.75 C 219.1875 108.117188 218.710938 107.4375 218.300781 106.707031 C 217.890625 105.980469 217.554688 105.21875 217.292969 104.425781 C 217.03125 103.632812 216.851562 102.820312 216.75 101.992188 C 216.652344 101.160156 216.632812 100.332031 216.695312 99.496094 C 216.757812 98.664062 216.902344 97.84375 217.125 97.039062 C 217.351562 96.234375 217.652344 95.460938 218.027344 94.714844 C 218.40625 93.96875 218.851562 93.265625 219.367188 92.609375 C 219.882812 91.949219 220.457031 91.351562 221.089844 90.804688 C 221.722656 90.261719 222.40625 89.78125 223.132812 89.371094 C 223.859375 88.960938 224.621094 88.625 225.414062 88.367188 C 226.210938 88.105469 227.019531 87.925781 227.851562 87.824219 C 228.679688 87.722656 229.511719 87.703125 230.34375 87.765625 C 231.179688 87.832031 231.996094 87.972656 232.800781 88.199219 C 233.605469 88.421875 234.382812 88.722656 235.128906 89.101562 C 235.875 89.476562 236.574219 89.925781 237.234375 90.4375 C 237.890625 90.953125 238.492188 91.527344 239.035156 92.164062 C 239.582031 92.796875 240.058594 93.476562 240.46875 94.207031 C 240.878906 94.933594 241.214844 95.695312 241.476562 96.488281 C 241.738281 97.28125 241.917969 98.09375 242.019531 98.921875 C 242.117188 99.753906 242.136719 100.582031 242.074219 101.417969 C 242.011719 102.25 241.867188 103.070312 241.644531 103.875 Z M 241.644531 103.875 " clip-rule="nonzero"/></clipPath><linearGradient x1="225.974831" gradientTransform="matrix(1.094531, 0.305114, -0.305114, 1.094531, -1.565296, -85.774417)" y1="86.113998" x2="253.625132" gradientUnits="userSpaceOnUse" y2="86.113998" id="ec616cee37"><stop stop-opacity="1" stop-color="rgb(12.358093%, 68.574524%, 71.04187%)" offset="0"/><stop stop-opacity="1" stop-color="rgb(12.298584%, 68.676758%, 71.105957%)" offset="0.0625"/><stop stop-opacity="1" stop-color="rgb(12.179565%, 68.882751%, 71.235657%)" offset="0.125"/><stop stop-opacity="1" stop-color="rgb(12.062073%, 69.090271%, 71.365356%)" offset="0.1875"/><stop stop-opacity="1" stop-color="rgb(11.943054%, 69.296265%, 71.495056%)" offset="0.25"/><stop stop-opacity="1" stop-color="rgb(11.825562%, 69.503784%, 71.62323%)" offset="0.3125"/><stop stop-opacity="1" stop-color="rgb(11.706543%, 69.709778%, 71.75293%)" offset="0.375"/><stop stop-opacity="1" stop-color="rgb(11.587524%, 69.915771%, 71.882629%)" offset="0.4375"/><stop stop-opacity="1" stop-color="rgb(11.470032%, 70.123291%, 72.012329%)" offset="0.5"/><stop stop-opacity="1" stop-color="rgb(11.351013%, 70.329285%, 72.142029%)" offset="0.5625"/><stop stop-opacity="1" stop-color="rgb(11.233521%, 70.535278%, 72.270203%)" offset="0.625"/><stop stop-opacity="1" stop-color="rgb(11.076355%, 70.808411%, 72.442627%)" offset="0.75"/><stop stop-opacity="1" stop-color="rgb(10.978699%, 70.979309%, 72.549438%)" offset="1"/></linearGradient></defs><rect x="-144" width="1728" fill="#ffffff" y="-41.999998" height="503.999982" fill-opacity="1"/><rect x="-144" width="1728" fill="#e2e3e2" y="-41.999998" height="503.999982" fill-opacity="1"/><g clip-path="url(#f4d9e35311)"><g clip-path="url(#df8377e558)"><g clip-path="url(#69fe87930f)"><g clip-path="url(#94b987cc4f)"><path fill="url(#34f18f8ac4)" d="M 1078.910156 495.9375 L 1524.585938 402.210938 L 1424.03125 -75.9375 L 978.359375 17.789062 Z M 1078.910156 495.9375 " fill-rule="nonzero"/></g></g></g></g><g clip-path="url(#f9b244257d)"><g clip-path="url(#8a4976a130)"><g clip-path="url(#24ed432005)"><g clip-path="url(#5668ff20c9)"><path fill="url(#27390a45ab)" d="M 1197.164062 375.835938 L 1261.867188 362.230469 L 1248.257812 297.527344 L 1183.554688 311.136719 Z M 1197.164062 375.835938 " fill-rule="nonzero"/></g></g></g></g><g clip-path="url(#4f511a0822)"><g clip-path="url(#c3f13e3f66)"><g clip-path="url(#401022fe4a)"><g clip-path="url(#99fa04614b)"><path fill="url(#acc2d066b7)" d="M 1102.261719 226.660156 L 1140.867188 218.539062 L 1132.746094 179.9375 L 1094.144531 188.054688 Z M 1102.261719 226.660156 " fill-rule="nonzero"/></g></g></g></g><g clip-path="url(#78d166fee6)"><g clip-path="url(#41c7120c97)"><g clip-path="url(#a341eba4d1)"><g clip-path="url(#f50f3d3648)"><path fill="url(#37dc6644d7)" d="M -32.839844 413.039062 L 277.699219 478.855469 L 323.015625 265.046875 L 12.472656 199.230469 Z M -32.839844 413.039062 " fill-rule="nonzero"/></g></g></g></g><g clip-path="url(#5d13cac3ef)"><g clip-path="url(#c3c92a8bfa)"><g clip-path="url(#87eaa7c1f0)"><g clip-path="url(#0e9f219b95)"><path fill="url(#921dd3fa35)" d="M 18.714844 -67.136719 L -40.390625 144.898438 L 240.839844 223.292969 L 299.949219 11.261719 Z M 18.714844 -67.136719 " fill-rule="nonzero"/></g></g></g></g><g clip-path="url(#166411eb19)"><g clip-path="url(#e778d8c026)"><g clip-path="url(#6937765534)"><g clip-path="url(#db148830ca)"><path fill="url(#ec616cee37)" d="M 218.472656 81.105469 L 210.035156 111.371094 L 240.296875 119.808594 L 248.734375 89.542969 Z M 218.472656 81.105469 " fill-rule="nonzero"/></g></g></g></g></svg>